<?xml version="1.0" encoding="UTF-8"?>
<svg version="1.1" viewBox="0 0 1600 1600" width="533" height="533" xmlns="http://www.w3.org/2000/svg">
<path transform="translate(616,202)" d="m0 0h41l19 5 16 7 12 7 11 9 8 6 6 5 6 7 5 10 9 13 11 21 2 6 1 12v37l-1 25-1 217-2 15-1 3-14 1h-27l-2-2-2-13-1-28v-15l-4 1-23 1-2 4-2-1v-2l-13 2-7 3-2-1-2 4-3 3-7 2-3 4h-2l-1 3-4 4 3 4-6 5-1 5-6 1-1 10v14l4 13 7 10 4 5 12 8 10 3 16 2h23l16-2 2-1 23-1h17l1 1v86l-2 52-1 186-2 16-4 18-4 10-5 14-4 10v10h-4v-2l-2 1 2 4-5 8-4 4-3-1 1-2-5 2h-3v4h-3l-2 6-1 1h-6l-2 7-9 3-9 5-3 2-7-1v3l-7 1-9 3h-5l-4 2h-32l-6-1v-2l-5 1-10-2v-2l-6 1-3-2v-2l-6 1-3-3-6-1-3-2-6-2-10-4-9-6-14-10-11-10-8-10-5-6-3-5-5-5-3-12-5-13-6-23v-6l-9 3-14 1-3 1h-11l-5-1-12-1-2-1v-2l-6 1-4-3h-6l-3-3-6-1-16-9-18-13-11-11-9-12-10-15-7-14-7-19-1-11-2-12v-18l1-10 1-2 1-11 1-5-2-2-1-9-12-2-3-2v-2l-6-1-17-11-12-11-8-8-10-13-9-16-8-17-5-16-4-17v-39l4-24 6-18 15-30 12-18 11-12 10-9 16-12 19-9 6-2 1-3-7-27-3-19v-24l4-17 6-20 12-23 7-11 6-8 9-10 11-11 14-10 19-10 16-6 13-3 19-3 17-1 5-1 10-17 5-7 4-8 10-13 12-13 5-5 7-6 17-10 19-10 17-6 16-5zm14 44-16 1-21 5-21 10-11 7-8 6-9 9-7 9v2h-2l-7 9-9 16-9 19-5 16-2 20-1 2v27l1 1v46l-6 12-3 3v2l-4 2-7 6-14 7-5 1h-9l-10-4-7-7-6-11v-12l5-10 10-7 12-2 2-2 1-78-11 1-20 6-16 7-12 9-6 5v2l-4 2-9 10-16 34-3 11-1 7v24l5 23 5 15 7 14 8 10 15 15 8 6 15 6 7 2 8 1h18l14-3 10-4 12-8 8-8 2-1v-2l3-1v-2l3-1v-2l12-6 4 1 1 1 7 1 3 3 1 11-5 15-8 12-2 4h-2l-7 8-8 6-14 9-7 3-10 3-10 1-2 1h-24l-2-1-11-1-10-3-16-8-11-6-10-7-6-4-13-12-7-10h-11l-2 2-10 4h-4l-4 5-6 3-15 15-8 11-8 12-8 19-7 24-1 7v17l3 18 6 18 5 10 10 16 7 7 5 6 11 9 8 5 15 6 11 3 24 3 1 1h16v-2h73l6 5 6 3 5 8 2 2 1 7 2 2v26l-3 9-4 10-3 3-3 6-8 5-5 2h-9l-8-5-6-10-3-9v-9l2-7v-9l-3-3-9-1h-34l-2 1v2h-13l-4 1-1 6-4 9-3 17-1 2v17l5 21 11 23 4 5 3 5 6 5 9 7 6 5 9 6 16 5 27 3h11l5-3 7-16 5-10 8-12 11-16 8-5 9 1 4 5 2 4v12l-3 15-1 2-2 25-1 1v24l1 2 2 14 2 5 2 8 10 19 7 9 9 10 11 9 11 7 8 4 9 3 18 3h26l21-5 16-7 12-9 10-9 10-19 5-13 3-12v-104l-3-1-7 1h-3l-6-1h-25l-15-1-1-1-11-1-21-7-16-8-8-7-6-3-7-7-5-8-6-6-4-7-5-10-3-10-2-9v-18l2-10 3-9 8-16 4-5 4-3 5 1 9 3 5 5 1 42 2 11 6 12 9 12 11 8 9 4 12 3h48l11-1 1-48 1-2 1-56v-29l-1-1-71-1h-23l-1 2-9 1h-210l-4-2-11-2-17-8-13-12-6-7-6-13-3-8v-7l4-7 6-5 9-3 6 1 10 8 7 6 4 5 11 8 10 3 14 1h79l86-1 9-2-1-8-4-11-4-17-2-10v-9l1-2 1-11 2-5 2-9 6-14 6-9 7-8 4-4v-7l-5-5-4-2-7-6-8-8-10-13-7-10-6-13-3-10-2-15-1-2v-30l3-15 4-9 3-9 8-17 9-10 9-7 19-10 9-3 8-2 14-1h22l45 3 2-6v-32l-2-7-6-12-11-14-9-7-8-6-6-4-23-7zm29 132-15 2-11 4-11 7-11 12-7 11-3 15-1 6v10l4 17 7 14 10 13 8 8 12 6 17 5 48 2h6v-61l-1-11v-14l1-18v-18l-2-5-11-3zm-19 191m84 497v2h2v-2z" fill="#FCFCFC"/>
<path transform="translate(815,280)" d="m0 0h39l34 4 16 4 8 1h4v2l5 2 27 11 9 4 13 5 11 6 3 3 7 3 3 3 9 3 3 5 8 4 5 5 13 10 6 3 5 6 6 4 8 10 8 7 5 6 8 7 4 8 10 13 5 5 7 10 8 12 5 7 10 23 7 19 5 12 2 5 2 10 4 5 1 14 2 8 1 17 5 6 3 3v37h2v3h-2v58l-4 5-5 1-1 9-1 1-1 10 3 1-1 5-1 1-1 7-2 2-1 7-2 2-2 5-1 1-1 9-7 14-1 1-1 10-8 8-1 7-5 5-2 5-3 6-10 10-2 5-4 1-2 5-4 4-2 5-3 6-4 1-2 5-5 1-1 5-7 1-2 5-6 3-4 4h-6l-2 8-9 9-6 3-4 1-2 5-7 7-2 6h-7l-4 10-5 5-2 5-4 4-2 5-3 6-7 7-2 5-5 8-2 2-2 8-7 14-4 11-5 9-2 5-5 1v11l-1 4h-2v16l3 3v6l-3 4-3 9v7l-2 6-1 27-1 3-5 5-14 1h-23v-14l-3-8 1-2 4-1v-115l-1-29-4-9v-8l2-4v-23l-2-4v-22l2-6v-7l2 1 3-7 8-11 7-6 7-14 5-1 3-3 7-14 9-9 8-17 4-4 6-3 3-3 2-5 17-17 2-5 5-2 2-2 3-7 7-2 4-5 6-12 4-4h2l1-5 3-6 4-9 3-7 3-17 1-4-1-8 1-1v-15l-3-14-6-10-9-13-5-5-7-10v-2l-5-2-6-5-7-6-15-9-4-3-7-3-8-1-5-2h-36l-10 4-8 5-6 6h-3l-2 5-3 6-5 2-1 7-3 3-6 1-2 6-2 3-4 13-2 2-3 9-1 8h2l1 2v16l2 21v51l-2 3v33l-1 16-1 3v10l-1 13h2l1 6v37l-1 47-1 1-1 133 2 2 1 18v28l-1 16-2 3v10l-1 9-3 3h-8v8l-6 1-13-1-1-1-7-1-1 3-6-1-3-3v-148l2-2v-20-4-125l-2-2v-63l2-2 1-23 4-2 1-103 1-3-3-1v-100l1-2 1-35-5-2v-6l4-2v-71l-1-1v-32l1-3v-18l-1-1v-27l1-4v-21l1-2z" fill="#13CDEB"/>
<path transform="translate(760,371)" d="m0 0h1v218l-2 15-1 3-14 1h-27l-2-2-2-13-1-28v-15l-4 1-23 1-2 4-2-1v-2l-13 2-7 3-2-1-2 4-3 3-7 2-3 4h-2l-1 3-4 4 3 4-6 5-1 5-6 1-1 10v14l4 13 7 10 4 5 12 8 10 3 16 2h23l16-2 2-1 23-1h17l1 1v86l-2 52-1 186-2 16-4 18-4 10-5 14-4 10v10h-4v-2l-2 1 2 4-5 8-4 4-3-1 1-2-5 2h-3v4h-3l-2 6-1 1h-6l-2 7-9 3-9 5-3 2-7-1v3l-7 1-9 3h-5l-4 2h-32l-6-1v-2l-5 1-10-2v-2l-6 1-3-2v-2l-6 1-3-3-6-1-3-2-6-2-10-4-9-6-14-10-11-10-8-10-5-6-3-5-5-5-3-12-5-13-6-23v-6l-9 3-14 1-3 1h-11l-5-1-12-1-2-1v-2l-6 1-4-3h-6l-3-3-6-1-16-9-18-13-11-11-9-12-10-15-7-14-3-10 5 5 6 10 1 3 4 1v-6l8-4 8-3-5-3v-1l9-2v-4l-2-4 1-4 4 1v2h2l11 22 4 5 3 5 5 4 9 7 6 5 9 6 16 5 27 3h11l4-2 7-16 5-10 8-12 11-16 9-6 9 1 5 6 2 4v12l-3 15-1 2-2 25-1 1v24l1 2 2 14 2 5 2 8 10 19 7 9 9 10 10 8 11 7 8 4 9 3 18 3h26l21-5 16-7 12-9 9-8 10-19 5-13 3-12v-104l-9 1h-3l-6-1h-25l-15-1-1-1-11-1-21-7-16-8-8-7-6-3-8-8-5-8-6-6-4-7-5-10-3-10-2-9v-18l2-10 3-9 8-16 5-6 4-3 5 1 9 3 6 6 1 42 2 11 6 12 9 12 10 7 9 4 12 3h59v-48l1-2 1-56v-29l-71-1-23-1-1 3-9 1h-210l-4-2-11-2-17-8-13-12-7-8-6-13-3-8v-7l4-7 7-6 9-3 6 1 10 8 8 7 5 5 9 7 10 3 14 1h79l86-1 2-1h7l-2-10 2-8 1-11 4-13 7-7 3-8 2-15 7-21 9-10 7-6 15-6 8-3 7-10 1-9 4-4 8-2 15-1h15v-2h2v-3l-2-1h5v-59h1l1 6v49l-2 6 2 15 2 7 4-1 5-8 2-9 3-5 2-9 4-8 1-11-1-10-3-5-1-12 3-3 3-1 16-1 5-1v-57zm-120 198m84 497v2h2v-2z" fill="#D5DADD"/>
<path transform="translate(803,182)" d="m0 0h32l46 5 33 6 37 9 20 7 30 13 19 9 20 11 25 16 17 12 10 8 11 9 10 9 24 24 9 11 11 13 12 16 16 24 12 20 11 22 12 26 10 26 6 20 8 36 5 37 2 28v52l-3 24-4 21-3 12-6 21-6 20-10 26-10 22-7 14-12 19-13 18-20 26-5 4h-2v2l-6 5 3-1-2 4-6 6-1 8-6 2-1 5-9 6-3 6-3 3-12 5h-4v3l-3 1-4 5h-2l-1 6-8 4-2 4h-2l-2 5h-2l-2 4-4 7h-4l1 3-10 15-2 1-2 5-8 16-5 12-3 9-2 10-1 2-2 16-1 2-2 28-2 6v18l-5 3 1 4v23l-2 6v14l-3 13-8 10-7 6-4 3-6 2-1 1-96 1-129 1-45 1-5-1v2l-3 1h-45l-6-1h-42l-13-7-10-9-4-6 1-9 4-6 8-7 4-2h70l27 1h73l66-1h44l91 1 1-10 1-2 1-15v-69l2-13 2-9 2-12 5-17 1-5-2-1 9-16 8-16 7-12 12-16 11-13 7-8 9-10 7-8 11-11 10-8 21-21 9-11 12-13 8-11 6-8 5-10 5-4 3-3 3-10 4-2 8-15 8-19 10-28 6-19 5-22 5-30 1-3h-2l1-4h2l-1-59-2-1 1-3-1-20-4-27-7-30-5-17-8-20-11-27-9-16-8-17-16-25-10-13-12-14-5-5-14-15-13-12-11-9-18-14-16-11-15-10-22-12-16-8-19-9-27-10-41-10-15-3h-26l-2-3-46-1-1-1-1-9z" fill="#D4D9DC"/>
<path transform="translate(1551,776)" d="m0 0h6l1 13v11l-1 5-1 43-1 11-1 1-2 23-1 1-2 20-1 1-2 16-1 2-2 17-2 3v8l-2 5-2 14-1 1-2 10-1 1-2 12-2 2-1 10-2 1v8l-2 3-2 8-1 1-1 7-2 2-2 8-9 27-7 14-3 8-6 13-6 17-4 5-11 23-4 9-3 5-5 6-8 16-8 13-4 6-5 6-3 5-3 4-3 5-3 4-3 5-3 4-3 5-7 10-7 7-3 6-18 18-3 6-14 14-5 8-47 47-5 2-13 13-5 2-10 10-5 2-11 11-4 1-4 4-5 2-4 4-5 1v2l-9 7-7 5-7 4-11 8-9 6-10 5-11 7-21 12-16 8-19 9-16 8-4 1-8 4-8 2-7 4-8 2-7 4-8 2-7 4-8 2-3 2h-5l-2 2-7 1-2 2-7 1-5 3h-7l-2 2-9 1-3 2-7 1-2 2-10 1-2 2-15 1-3 2-12 1-4 2-13 1 4-7 1-6 8-16 11-17 8-11 9-8 24-7 43-12 38-13 29-13 29-14 22-12 17-10 23-14 16-11 18-13 15-12 12-9 14-11 14-12 8-8 8-7 12-12 7-8 17-17 7-8 9-10 9-11 8-9 13-18 12-17 9-14 12-19 10-18 18-35 8-16 12-28 16-47 8-25 11-44 7-39 3-20 3-31 3-40 2-37 1-1 31-2 3-1zm-181 461 1 2zm-96 102m-2 1-14 11-10 8-3 4 4-2 14-11 9-7 2-3zm-28 23m-1 1m-2 1-10 8-9 6-8 7-14 9-6 5h3l19-12 11-9 11-8 5-6zm-49 36m-1 1m-2 1m-1 1m-2 1m-2 1-1 2 3-1z" fill="#919DA4"/>
<path transform="translate(813,46)" d="m0 0h37l38 3 31 4 29 5 31 7 52 13 22 8 31 12 53 23 21 10 19 10 13 8 35 21 34 24 11 9 16 13 8 7 12 11 8 7 10 9 9 9 8 7 21 21 7 8 13 15 15 20 14 18 12 17 15 23 15 24 8 13 12 21 11 21 13 30 13 31 18 50 15 52 4 14 3 14 3 19 1 17-1 1h-54l-2-15-3-20-4-22-8-30-12-36-12-34-9-21-15-33-15-29-14-24-14-22-10-14-24-32-8-11-11-13-7-8-11-12-15-15-8-7-13-12-15-14-11-9-13-11-17-12-19-14-16-10-20-13-18-10-25-14-28-14-28-13-30-11-44-13-18-5-34-8-41-7-23-3-37-3-19-1-22-2-9-6-8-8-6-9 1-7 6-9 9-8 9-4z" fill="#FCFCFC"/>
<path transform="translate(77,786)" d="m0 0h13l1 1 1 57 2 25 3 26 5 36 7 29 17 62 12 36 10 23 9 20 10 20 12 22 11 20 10 17 8 12 8 11 9 12 13 16 9 11 13 16 11 12 14 16 10 10v2l3 1v2l4 2 8 9 11 9 12 11 12 10 19 14 17 12 28 20 24 16 21 12 29 15 28 13 24 10 25 9 31 9 26 6 18 4 2 1 7 14 7 10 27 27 2 9h-6l-2-1-22-2-48-12-12-4-12-3-9-3-10-2-8-4-7-1-2-2-7-1-2-2-7-1-2-2-14-4-1-2-7-1-2-2-7-2-32-16-17-8-14-8-4-2-15-8-13-8-17-11-18-12-7-4-11-9-28-21-22-18-12-11-13-13-3-2v-2l-5-2-26-26-9-11-11-14-10-12-9-11-12-15-10-13-12-17-16-26-10-17-10-16-11-19-13-28-11-25-15-41-7-20-6-19-9-37-6-28-4-27-4-30-2-26-1-7-1-18v-46z" fill="#D5DADD"/>
<path transform="translate(803,182)" d="m0 0h32l46 5 33 6 37 9 20 7 30 13 19 9 20 11 25 16 17 12 10 8 11 9 10 9 24 24 9 11 11 13 12 16 16 24 12 20 11 22 12 26 10 26 6 20 5 22v7l-2-3-10 1-5 3-6 9h-2l-2 9-2 4-2 22v16l1 3-1 7-1 13v9l-1 7-1 1-1 18h-2l-1-54-2-1 1-3-1-20-4-27-7-30-5-17-8-20-11-27-9-16-8-17-16-25-10-13-12-14-5-5-14-15-13-12-11-9-18-14-16-11-15-10-22-12-16-8-19-9-27-10-41-10-15-3h-26l-2-3-46-1-1-1-1-9z" fill="#FCFCFC"/>
<path transform="translate(689,49)" d="m0 0h4l1 6 3 42v8l-4 2-30 5-19 3-30 7-18 5-26 7-31 12-16 6-26 11-28 13-28 15-30 18-19 12-11 8-16 12h-3l-2 4-10 9-7 6-5 3-11 11-8 7-3-1v4h-3l-1 3h-2l-1 3h-2l-1 4h-2l-2 4-6 10-7-6-10-12-9-11-16-12 2-5 10-11 6-7 11-9 7-7 11-9 15-12 19-14 18-12 16-11 14-9 17-10 24-13 19-10 25-12 15-7 33-13 25-9 24-8 40-11 25-6 40-8z" fill="#FCFCFC"/>
<path transform="translate(815,280)" d="m0 0h39l34 4 16 4 8 1h4v2l5 2 27 11 9 4 13 5 11 6 3 3 3 2-3 1 4 5 3 2v4l-4 2-4 8-8 13h-2l-1 5-4 9-3 7-4 8-4 4-11 7-4 8-5 6-10 7-8 6-9 9-6 4-1 3-4 2h-3l-1 3-6 3-9 4-10 4-5 3-5 2-2 5-5 2-2 5-6 2-4 1-3 1-1 2-7 2-3 2-9-1v2l-4 1-4-2-1-13-5-2v-6l4-2v-71l-1-1v-32l1-3v-18l-1-1v-27l1-4v-21l1-2z" fill="#92FEFE"/>
<path transform="translate(1143,525)" d="m0 0h3l1 2 1 14 2 8 1 17 5 6 3 3v37h2v3h-2v58l-4 5-5 1-1 9-1 1-1 10 3 1-1 5-1 1-1 7-2 2-1 7-2 2-2 5-1 1-1 9-7 14-1 1-1 10-8 8-1 7-5 5-2 5-3 6-10 10-2 5-4 1-2 5-4 4-2 5-3 6-4 1-2 5-5 1-1 5-7 1-2 5-6 3-4 4h-6l-2 8-9 9-6 3-4 1-2 5-7 7-2 6h-7l-4 10-5 5-2 5-4 4-2 5-3 6-7 7-2 5-5 8-2 2-2 8-7 14-4 11-5 9-2 5-5 1v11l-1 4h-2v16l3 3v6l-3 4-3 9v7l-2 6-1 27-1 3-5 5-14 1h-23v-14l-3-8 1-2 4-1v-115l-1-29-4-9v-8l2-4 1-22h1v8h2l1 2 1 19 3 12 4 6 3 1 4-2 10-3 16-8 12-12 7-9 8-11 8-9h2l2-4 7-8h2l1-3h2l2-4 10-10 4-5 8-7 9-9 8-7 12-13 9-10 13-17 13-18 13-23 11-23 6-20 6-25 5-31 2-14 5-25 5-16 6-18 3-13 2-18z" fill="#0983A4"/>
<path transform="translate(202,311)" d="m0 0 5 5 12 13 12 10 17 12v4l-11 12-10 14-9 12-14 18-12 16-8 14-10 18-4 5-4 8h-2l-1 6-8 17-5 13-4 7-2 7-3 7-1 1-1 7-2 2-2 7-4 9-2 7-3 9-4 10-1 7-2 2-2 10-2 7-2 4-1 7-2 2-1 11-2 7-1 10-1 1-2 15-2 6-1 11-2 8-1 12-3 15-1 1h-48l-5-1 4-43 3-22 3-15 11-44 8-30 8-24 12-30 9-24 16-33 8-16 13-23 9-16 16-23 10-14 13-16 12-18 5-7z" fill="#FCFCFC"/>
<path transform="translate(249,988)" d="m0 0 10 3 10 8 7 6 7 8 7 7 7 8 13 15 10 13 6 7 6-1 10-6 11-5 18-6 9-1h25l10 2 16 6 18 10 12 9 9 8 7 10 7 12 7 18 3 11 1 10 1 2v17l-2 3v8l-2 5-1 2-1 8-5 13-6 11-8 11-16 16-10 7-19 9-7 2-4 1-3 1h-36l-3-3h-9l-2-2-7-1-19-10-13-10-9-9-10-14-8-16-7-19-2-15v-15l1-2 1-13 4-13 8-18 7-14-2-6-7-8-10-11-13-17-11-14-10-13-5-8-3-9 1-6zm145 94-13 1-12 3-11 6-9 7-11 13-6 13-3 11-1 8v17l2 10 10 19 9 11 11 8 12 6 6 2h24l16-6 13-8 9-9 10-14 5-11 3-13v-17l-4-13-9-16-9-10-9-6-18-9-9-1z" fill="#D5DADD"/>
<path transform="translate(1353,306)" d="m0 0h10l9 5 5 2h5l4 2 24 32 11 15 17 26 15 24 8 13 12 21 11 21 13 30 13 31 18 50 15 52 4 14 3 14 3 19 1 17-1 1h-54l-2-15-3-20-4-22-8-30-12-36-12-34-9-21-15-33-15-29-14-24-14-22-10-14-24-32-6-9-1-4 3-2-1-4-4-6-3-4-2-6-1-7 2-3 2-7 6-3z" fill="#D5DADD"/>
<path transform="translate(1358,607)" d="m0 0h26l10 3 15 8 10 8 10 10 10 15 6 13 3 11v31l-3 9-5 12-6 10-7 9-8 7-11 7-17 8 2 7 1 9 1 71 1 25v39l-2 10-3 1-2 4-8 2-7-1-4-5-3-6-3-17-1-107-3-2v-10l4-16-1-3-14-5-14-6-11-7-13-13-10-17-6-16-2-11v-15l2-12 5-13 7-11 8-10 12-12 13-8 10-4zm1 40-10 4-8 7-7 11-4 10-1 4v8l5 15 6 10 7 8 8 4 8 2 19 1 9-3 11-11 8-16 3-11v-13l-3-9-7-9-7-6-12-5-3-1z" fill="#D5DADD"/>
<path transform="translate(627,1241)" d="m0 0h43l316 2 7 3 7 5 6 10v6l-6 9-9 7-2 2-5-1h-76l-2 1h-23v2l-6 1-1-3-108 1-5-1-1 3h-26l-1-1h-120l-9-3-13-12-4-7 1-6 6-9 6-5 8-3z" fill="#D4D9DC"/>
<path transform="translate(1551,776)" d="m0 0h6l1 13v11l-1 5-1 43h-1l-1-18h-3l-4 5-3-1v-2l-5-1-14-2-5-6-3-1-1 18-6 54-5 33-10 48-8 32-12 36-10 27-11 26-23 46-13 23-9 15-14 20-11 16-11 15-13 17-11 13-18 22-15 16-15 15-11 9-13 12-9 7-16 13-13 10h-3l-2 4-4 1-2 4-5 5-9 8-11 7h-5v2l-19 12-24 14-22 12-24 12-30 13-30 11-31 10-52 14-12 5-8 6-8 8-13 18-3 5-1-2 8-16 11-17 8-11 9-8 24-7 43-12 38-13 29-13 29-14 22-12 17-10 23-14 16-11 18-13 15-12 12-9 14-11 14-12 8-8 8-7 12-12 7-8 17-17 7-8 9-10 9-11 8-9 13-18 12-17 9-14 12-19 10-18 18-35 8-16 12-28 16-47 8-25 11-44 7-39 3-20 3-31 3-40 2-37 1-1 31-2 3-1z" fill="#F9FAFA"/>
<path transform="translate(650,1325)" d="m0 0h189l136 1 8 3 9 7 6 10-2 5-5 6-11 7-7 2-1 1h-9l-3 2-15 1-277 1-2 1h-27l-4-1h-7l-9-3-8-6-8-9-2-4v-6l5-8 7-6 5-2 10-1z" fill="#D5DADD"/>
<path transform="translate(1150,1106)" d="m0 0h25l14 4 10 4 10 7 9 7 8 8 3 5 4 7 4 8 3 4 2 7 2 4v7l2 2v14l3 1v11l-2 2-1 13-2 2-1 7-5 5-1 4-25 25-6 3-4 3-3 1-1 4-7 1-12 1-10 2-2-1v-2l-9 1h-7l-3-3h-6l-2-2-6-2v-2l-5-1-8-5-8-7v-2l-5-1-5-4-2-5-7-6-4-10-4-8-2-11-2-5v-21l2-4 1-10 3-9 8-16 8-11 4-2v-2l12-9 12-7zm5 45-10 4-10 8-8 11-3 8v17l3 12 5 10 8 8 12 6 6 1h17l8-2 11-6 8-8 6-12 1-7v-14l-1-7-6-11-5-6-14-9-10-3z" fill="#8FD5E9"/>
<path transform="translate(1254,881)" d="m0 0 12 1 12 3 16 8 11 10 5 5v3l3 1v2h2l4 5 4 7 8 16 1 8 1 1v24l-1 2-1 9-2 3-1 7-2 2-2 5-4 9-7 11-16 16-6 3-8 5-5 2h-6l-2 2-11 1h-19l-2-3h-9l-10-5-7-4-13-9-12-12-9-16-4-11-3-12v-9l-1-9 2-16 7-17 7-11 9-11 11-10 14-8 17-6zm-9 42-9 3-8 4-7 6-6 9-6 12-1 5v14l3 10 9 14 9 8 10 5 16 1 11-1 14-7 6-5 7-11 5-13 1-5v-17l-4-11-8-10-10-7-6-3-5-1z" fill="#D5DADD"/>
<path transform="translate(609,1154)" d="m0 0h70l27 1 268 1 1 3-4 4-5 3-20 7-20 4-28 3-15 2-15 5-15 4-14 3v3l-74 1-45 1-5-1v2l-3 1h-45l-6-1h-42l-13-7-10-9-4-6 1-9 4-6 8-7z" fill="#FCFCFC"/>
<path transform="translate(914,576)" d="m0 0h18l2 2 7 1 2 5 5 2 7 8 3 9 1 5 6 1 7 7 10 15 4 9v16l-1 4h2l1 11-2 2-1 7-8 8-2 5-3 6-4 4-2 5-13 13-2 5-10 10-2 5-10 10-3 6-2 8-7 1-2 5-6 6-12 6-8 1-1-1v-57l3-5v-16l2-11 1-12 1-2 1-16 1-1 10-1 10-5 9-1 2-2 8-2 6-5 2-3 1-11v-6l-14 2-10 5-6 2-9 1h-17l-4-4-3-7v-11l2-11 6-9 2-7 8-2 13-9z" fill="#13CDEB"/>
<path transform="translate(1517,822)" d="m0 0 4 1 4 5 14 2 5 2 1 2 4-2 3-3 2 1 1 5v24l-1 1-2 23-1 1-2 20-1 1-2 16-1 2-2 17-2 3v8l-2 5-2 14-1 1-2 10-1 1-2 12-2 2-1 10-2 1v8l-2 3-2 8-1 1-1 7-2 2-2 8-9 27-7 14-3 8-6 13-6 17-4 5-3 6-4-1v2h-3l-1 3-1-2-1-7-3-7 1-4-3 1-3-1v-2l-2-1-1 5-5 6-2 4h-2v-5l4-10 6-17 1-11-1-2 15-39 12-36 7-26 12-57 6-40 6-59z" fill="#919DA4"/>
<path transform="translate(218,849)" d="m0 0 4 1 1 1 18 1 15 8 3 3 12 6 5 6 3 5 2 5 4 4 1 7 2 2 2 5 2 7 2 3v8l-2 2v8l-9 17-3 5-5 5h-2l1 4-2 2h-5l-2 5-3 5-6 5-15 1-6 2h-21l-2-2-17-5-7-7-7-1-7-8-3-5-8-8-5-11v-6l-2-2v-20l4-2 3-8 6-15 3-6h2l2-4 9-8 22-11 1-1 7-1zm1 42-9 2-6 5-6 9-1 9-1 1 1 7 4 8 6 7 5 3 13 1 3 1 8-3 8-7 4-5 2-5v-12l-3-8-5-7-8-5-4-1z" fill="#13CDEB"/>
<path transform="translate(683,1412)" d="m0 0 98 1 23 1 109 1-8 14-7 11-8 10-10 8-7 5-14 6-10 3-7 1-1 2-11 1-4 2-14 1-2 1-10 1h-10l-7-1-4-1-8-1-2-2-9-1-3-2-8-2-14-5-11-6-11-7-13-13-8-11-9-16z" fill="#D5DADD"/>
<path transform="translate(946,305)" d="m0 0 8 1 10 5 12 5 6 4 5 4-3 1 4 5 3 2v4l-4 2-4 8-8 13h-2l-1 5-4 9-3 7-4 8-4 4-11 7-4 8-5 6-10 7-8 6-9 9-6 4-1 3-4 2h-3l-1 3-6 3-9 4-10 4-5 3-5 2-2 5-5 2-2 5-6 2-4 1-3 1-1 2-7 2-3 2-9-1v2l-4 1-4-2-1-13-5-2v-6l4-2 1-14 3-3h2l1-5 7-13 11-8 8-8 16-8 17-8 11-7 10-6 8-4 7-5 7-4 6-7 7-11 3-5 9-20 3-13v-7z" fill="#6BF6FE"/>
<path transform="translate(1143,525)" d="m0 0h3l1 2 1 14 2 8 1 17 3 5 1 27v23l-1 24-1 11-3 10-3 12-4 7-2 6-4 5-11 8-5 1-5 4-4 6-10 19-8 15-11 18-10 13-12 16-11 14-16 17-15 15-8 7-7 8h-2l-2 4-10 13-11 13-10 15-9 16-6 15-9 36-11 22-1 3h-2l-2 5-3 1-2 5-8 9-5 8-5 11-2 9-2 10-4 15h-1l-1-105-1-29-4-9v-8l2-4 1-22h1v8h2l1 2 1 19 3 12 4 6 3 1 4-2 10-3 16-8 12-12 7-9 8-11 8-9h2l2-4 7-8h2l1-3h2l2-4 10-10 4-5 8-7 9-9 8-7 12-13 9-10 13-17 13-18 13-23 11-23 6-20 6-25 5-31 2-14 5-25 5-16 6-18 3-13 2-18z" fill="#0E9BBB"/>
<path transform="translate(477,1439)" d="m0 0 9 2 19 10 27 11 36 12 25 7 29 6 16 4 5 4 7 11 28 28 2 9h-6l-2-1-22-2-48-12-12-4-12-3-9-3-10-2-8-4-7-1-2-2-7-1-2-2-7-1-2-2-14-4-1-2-7-1-2-2-7-2-32-16-17-8-5-6 10-1 1-7 5-6 11-2 9-6z" fill="#929EA5"/>
<path transform="translate(249,988)" d="m0 0 10 3 10 8 7 6 7 8 7 7 7 8 13 15 10 13 6 7 6-1 10-6 11-5 18-6 9-1h25l10 2 16 6 18 10v4l-7 6-4 5-10 6-4 3h-11l-1 2-3-2-9-1-6-2-13 1-12 3-11 6-9 7-10 12-6 13-2 8h-2v-3l-4 2h-9l-11 2-5 5-8 16-2 7h-2l-1-5v-15l1-2 1-13 4-13 8-18 7-14-2-6-7-8-10-11-13-17-11-14-10-13-5-8-3-9 1-6z" fill="#FCFCFC"/>
<path transform="translate(358,630)" d="m0 0 6 1 10 8 8 7 5 5 9 7 10 3 14 1h129l-1 2-9 2-5 5-6 8-5 5-10 5-2 3h-2v2h-2l-2 4-7 4h-3v2l-12 2h-84l-4-2-11-2-17-8-13-12-7-8-6-13-3-8v-7l4-7 7-6z" fill="#FCFCFC"/>
<path transform="translate(627,1241)" d="m0 0h43l316 2 6 2-1 3-13 4-14 2-40 2-69 2-21 1-91 2-57 1-26 1-6 2-7 6-9 4v5l-4 5-1 2h-18l-9-3-13-12-4-7 1-6 6-9 6-5 8-3z" fill="#FBFBFB"/>
<path transform="translate(77,786)" d="m0 0h13l1 1 1 57 2 25 3 28h-2l-3-10-9-1h-2l-2 5-5 3-5 1-2 5-11 6-3 11-4 13h-2l-6-45-2-26-1-7-1-18v-46z" fill="#FBFBFB"/>
<path transform="translate(1358,607)" d="m0 0h26l10 3 15 8-1 7-5 7-4 13-4 4h-2v2l-9-2-3-1h-22l-10 4-7 6-7 11-4 10-1 4v8l5 15 4 7v3l-7 1-7-1-9 4-3 6-11-3-6-15-3-14v-15l2-12 5-13 7-11 8-10 12-12 13-8 10-4z" fill="#FCFCFC"/>
<path transform="translate(1239,1164)" d="m0 0 4 4 1 6 1 5 1 1v14l3 1v11l-2 2-1 13-2 2-1 7-5 5-1 4-25 25-6 3-4 3-3 1-1 4-7 1-12 1-10 2-2-1v-2l-9 1h-7l-3-3h-6l-2-2-6-2v-3l-2-1 1-5h-3v-2h-2l-2-6 2-3 9-2 1-4h2v-2l4-2 1-4 6-1 6 1 18-1 8-2 11-6 7-7 6-12 1-7v-14l-1-9h7l11-8h6l4-4z" fill="#0F9BBB"/>
<path transform="translate(403,768)" d="m0 0h63l6 5 6 3 6 9 2 2 1 7 2 2v26l-3 9-4 10-3 3-3 6-3 3-11 5h-9l-9-6-6-10-3-9v-9l2-7v-9l-2-2-9-1h-36v2h-11l5-16 3-18 6-1v-3z" fill="#D5DADD"/>
<path transform="translate(650,1325)" d="m0 0h189l136 1 4 1v2l2 1-7 3-39 3-42 1-38 2-83 2-56 2-35 2-42 2v2l-11 6-7 7-7 1-4-2-7-8-2-4v-6l5-8 7-6 5-2 10-1z" fill="#F9F9F9"/>
<path transform="translate(1254,881)" d="m0 0 12 1 12 3v2h-4l1 3 2 1-12 6-8 9-5 8-4 6 14 1v1l-15 1-14 5-6 4-5 4-6 9-6 12-2 6-1 11-9 4-7 4h-2v2l-5 2v2l-4 2-6 2-3-12v-9l-1-9 2-16 7-17 7-11 9-11 11-10 14-8 17-6z" fill="#FCFCFC"/>
<path transform="translate(477,1439)" d="m0 0 9 2 19 10 27 11 23 8v1h-5l1 4 3 3 5 8v5l4 8 1 10-2 5v2l-4-1-7-3-7-1-2-2-7-1-2-2-7-1-2-2-14-4-1-2-7-1-2-2-7-2-32-16-17-8-5-6 10-1 1-7 5-6 11-2 9-6z" fill="#A9B2B8"/>
<path transform="translate(1459,1086)" d="m0 0h1l-1 13-6 16-4 10-1 5h2l2-6 5-6 1-3 3 1-1 2h6l1 7 3 7v5l1-2h3v-2l3 1-1 4-7 16-3 6-3 5-5 6-2 4-6 4-5 11-4 1-3 6-5 1h-2v2l-5 5-4 8-3-1-4 4h-2l-2 8v4l5 1-2 6-6 4-4-1v-2h-10l-5 3h-5l-3 1v-9l6-10 10-25 16-24 15-27 12-23 15-30 2-5z" fill="#8D959D"/>
<path transform="translate(851,790)" d="m0 0h1l1 5v37l-1 47-1 1-1 133 2 2 1 18v28l-1 16-2 3v10l-1 9-3 3h-8v8l-6 1-13-1-1-1-7-1-1 3-6-1-3-3v-148l4-2 1 115 1 2 5-1 5-5 11-7 6-3 10-9 1-7 2-30 1-6 1-197 1-17z" fill="#0F9BBB"/>
<path transform="translate(487,1282)" d="m0 0h10l8 2 11 8 6 9 2 5v17l-4 9-6 8-10 6-9 3-9-1-9-4-8-7-5-9-1-4v-12l2-9 4-8 4-5 10-7z" fill="#D5DADD"/>
<path transform="translate(614,927)" d="m0 0h12l8 4 6 5 6 8 5 10 1 4v12l-5 10-13 13-2 1h-7v2l-5-1-8-2-4-4-5-2-6-7-5-10-1-3v-13l5-12 7-8 6-5z" fill="#D5DADD"/>
<path transform="translate(997,860)" d="m0 0v3l-13 15-14 19-10 16-8 16-6 16-3 12-5 12-6 11-8 7-5 4-5 3-2 2-4 2v-2l-4-2-3-8-1-7-1-17-1-5-1 5h-1l-1-29-4-9v-8l2-4 1-22h1v8h2l1 2 1 19 3 12 4 6 3 1 4-2 10-3 16-8 12-12 7-9 8-11 8-9h2l2-4 7-8h2l1-3h2l2-4z" fill="#05A7C7"/>
<path transform="translate(683,1412)" d="m0 0 98 1 23 1 41 1 3 2h-3v2l-9 2-16 2-16 1-4 1-5 16-2 2-4-1-2 1-15-5-14-3-4-2 2-2h-12l-4 3-11 2-7 4h-2l-1 6-5 6-4-2-10-10-8-11-9-16z" fill="#FBFBFB"/>
<path transform="translate(1149,553)" d="m0 0h1l1 13 3 5 1 27v23l-1 24-1 11-3 10-3 12-4 7-2 6-4 5-11 8-5 1-5 4-4 6-10 19-8 15-2 1 2-6 8-16 7-18 9-32 3-9 4-20 8-29 8-21 3-5 2-11 1-15z" fill="#0E9BBB"/>
<path transform="translate(1193,1114)" d="m0 0h6l10 7 9 7 8 8 3 5 4 7 4 8 3 4-1 5-4 2-4 4h-6l-8 6-5 2h-6l-5-10-4-5-14-9-10-3-9-2-2-2 5-4 5-3 4-7 6-8 8-5z" fill="#56B8D0"/>
<path transform="translate(387,1122)" d="m0 0 11 1 8 4 6 5 7 10 3 7v12l-7 10-11 7-13 3-4-2-5-1-10-8-7-12-1-3v-9l5-12 8-8 6-3z" fill="#D5DADD"/>
<path transform="translate(1336,478)" d="m0 0h16l14 7 8 9 5 13-1 7-4 8-8 9-10 5-9-1-8-3-10-9-7-11-1-3v-9l4-10 4-6z" fill="#FCFCFC"/>
<path transform="translate(1551,776)" d="m0 0h6l1 13v11l-1 5-1 43h-1l-1-18h-3l-4 5-3-1v-2l-5-1-14-2-5-6-3-1-1 18-6 54-5 33-10 48-8 32-6 19-1-4 5-16 5-21 7-30 6-29 6-40 5-52 3-48v-3l-12-2-2 38-1 11h-1v-12l2-37 1-1 31-2 3-1z" fill="#D4D9DC"/>
<path transform="translate(1122,1185)" d="m0 0h1l3 20 5 13 7 8 8 5 6 3 6 1-1 2-12-1-1 5-4 1-2 6-6 2-4 1-1 4 1 4h2v2h3v3l2 1-2 1 1 2-5-1-8-5-8-7v-2l-5-1-5-4-2-5-6-7-2-9-1-17 4-9 4-5 13-5z" fill="#57B8D0"/>
<path transform="translate(1517,822)" d="m0 0 4 1 4 5 14 2 5 2 1 2 4-2 3-3 2 1 1 5v24l-1 1-2 23-1 1-1 12-2-4-3-3-6-1-7-3v-2h-6l-7-4-4-8-2-1-1 4 1-15 3-31z" fill="#A9B2B8"/>
<path transform="translate(1294,391)" d="m0 0h10l10 5 5 5 4 6v14l-4 11-7 8-5 3-7 1-9-2-6-4-7-8-5-10 1-8 6-10 8-8z" fill="#FBFBFB"/>
<path transform="translate(224,484)" d="m0 0h12l10 5 7 8 2 6v9l-4 10-9 10-9 4-7-1-6-3-7-8-6-12v-9l3-7 7-8z" fill="#FBFBFB"/>
<path transform="translate(1311,1130)" d="m0 0h8l9 4 8 6 5 9 2 5v7l-4 9-7 6-12 6-10-4-8-6-5-5-4-6v-7l3-10 6-8 6-5z" fill="#D5DADD"/>
<path transform="translate(165,720)" d="m0 0h8l9 3 7 7 4 8v8l-4 10-9 10-4 3-3 1h-7l-10-5-7-6-5-8-1-9 4-9 6-7 9-5z" fill="#FAFBFB"/>
<path transform="translate(211,398)" d="m0 0h2l-2 4-13 17-7 10-11 19-8 14-6 10h-2l-1 6-8 17-5 13-4 7-2 7-3 7-1 1-1 7-2 2-2 7-4 9-2 7-3 9-4 10-1 7-2 2-2 10-2 7-2 4-1 7-2 2-1 11-2 7-1 10-1 1-2 15-2 6-1 11-2 8-1 12-1 5h-1l-1-8 1-8 1-20 3-24 4-22 7-28 9-29 14-37 9-22 11-24 12-23 10-18 7-11 14-18 9-10 5-5z" fill="#D5DADD"/>
<path transform="translate(1143,525)" d="m0 0h3l1 2 1 14 2 8-1 14-1 5-2 22-3 7-6 15-6 18-7 27-2 12-5 15-7 26-8 20-8 16-3 8-11 17-13 17-10 13-8 10-15 16-15 15-8 7-7 6-1-2 5-4 15-15 8-7 12-13 9-10 13-17 13-18 13-23 11-23 6-20 6-25 5-31 2-14 5-25 5-16 6-18 3-13 2-18z" fill="#05A7C7"/>
<path transform="translate(393,769)" d="m0 0h36l3 2-2 10 1 5 1 16-1 2-5 1h-36v2h-11l5-16 3-18 6-1z" fill="#A9B2B8"/>
<path transform="translate(851,790)" d="m0 0h1l1 5v37l-1 47-1 1-1 133 1 2h-2l-1 36-1 18-3 9-5 5-8 3-17 6-7 2-2-1v-21l2 2 5-1 5-5 11-7 6-3 10-9 1-7 2-30 1-6 1-197 1-17z" fill="#04A6C6"/>
<path transform="translate(1408,434)" d="m0 0 4 4 9 11 12 22 8 15 8 16 8 21 11 25 7 20 8 21 5 15 2 10 3 8 8 30 4 25 1 18h-7l-2-15-3-20-4-22-8-30-12-36-12-34-9-21-15-33-15-29-11-19z" fill="#F9F9FA"/>
<path transform="translate(1202,658)" d="m0 0 4 2v9l-2 7-2 8-2 6 1 4-4 20-6 20-9 27-12 26-8 13-10 15-10 14-7 9-8 10-9 10-25 25-6 5-6 2-5 3 2-4 10-9 17-17 9-11 12-13 8-11 6-8 5-10 5-4 3-3 3-10 4-2 8-15 8-19 10-28 6-19 5-22z" fill="#F9FAFA"/>
<path transform="translate(1344,1280)" d="m0 0h5l1 6-1 11-4 1-8 7-4 2-4 4-4 11-13 13-1 2-5 1-5 10-5 2-2 2-5-5v-4l2-10 9-10 9-9 6-10 3-1v-2l6-4 1-2h2l2-4 6-4 5-1 2-5z" fill="#8D959D"/>
<path transform="translate(1371,492)" d="m0 0 4 4 4 11-1 7-4 8-8 9-10 5-9-1-8-3-3-3 2-2 2-13 9-11 11-6 9-3z" fill="#D5DADD"/>
<path transform="translate(912,578)" d="m0 0 17 2 10 4 4 2 1 2 3 2h-2l-1 5-10-1-9 5-12 6-13 4-13 6h-4l1-11 6-9 2-7 8-2z" fill="#92FDFD"/>
<path transform="translate(515,881)" d="m0 0 9 1 5 6 2 5-2 2-1-2-10 8-3 3-3 1-8 10-8 11-10 16-5 5-7 1-5-1-15-1-5-2v-1h22l4-2 7-16 5-10 8-12 11-16z" fill="#FCFCFC"/>
<path transform="translate(1332,957)" d="m0 0h1v18l-1 2-1 9-2 3-1 7-2 2-2 5-4 9-7 11-16 16-6 3-8 5-7 1-2-2 1-3 6-5 4-11 8-7 2-3v-2l5-2 1-2h2v-2l6-3 3-5 4-3h2l2-6 3-5h2l1-4 2-2v-14z" fill="#ABB4BA"/>
<path transform="translate(1022,1109)" d="m0 0 3 1-1 2-4 2 1 4v23l-2 2-4-6h-11l-16 4-2 1-2 3-1-1v-16l1-15 10-2 15-1z" fill="#919DA4"/>
<path transform="translate(1147,700)" d="m0 0h3l-1 5-1 1-1 7-2 2-1 7-2 2-2 5-1 1-1 9-7 14-1 1-1 10-8 8-1 7-5 5-2 5-3 6-10 10-2 5-4 1-2 5-4 4-2 5-3 6-4 1-2 5-5 1-1 5-7 1-2 5-6 3-4 4-6-1 6-7 3-1v-2h2l2-4 5-5 4-5h2v-3l5-4 6-7 5-5 5-6h2v-2l6-5 15-23 10-18 12-30 10-27z" fill="#0D6885"/>
<path transform="translate(806,717)" d="m0 0h1v158l-1 80-2 1-1-19v-4-125l-2-2v-63l2-2 1-23z" fill="#0C89A9"/>
<path transform="translate(949,618)" d="m0 0h8l2 2-1 10-4 8-3 4h-2v2l-5 1 1-12v-6l-14 2-10 5-6 2-9 1h-17l-4-4-2-7 4-1 6 2v2h2v2l25-5 24-7z" fill="#1BA0BF"/>
<path transform="translate(986,661)" d="m0 0h1l1 10-2 2-1 7-8 8-2 5-3 6-4 4-2 5-13 13-2 5-10 10-2 5-10 10-3 6-2 8-7 1-2 5-6 6-12 6-3-1 18-18 6-7 5-5 6-7 6-8 4-4 1-2h2l2-4 6-10h2v-3l2-1 3-5 3-2 3-5 6-7 9-15 4-11 2-1z" fill="#0D6E8C"/>
<path transform="translate(717,978)" d="m0 0 3 3-1 13-5 17-4 9-8 14-8 10-8 7-12 7-13 5-12 3-8 1h-26l-12-3-5-1v-2l15 2h26l21-5 16-7 12-9 9-8 10-19 5-13 3-12z" fill="#FDFDFD"/>
<path transform="translate(440,189)" d="m0 0 3 1-22 13-28 17-28 21h-3l-2 4-10 9-7 6-5 3-11 11-8 7-3-1v4h-3l-1 3h-2l-1 3h-2l-1 4h-2l-2 4-4 4 1-4 6-11 22-22 8-7 18-14 23-15 17-12 10-7 16-10 11-6z" fill="#D5DADD"/>
<path transform="translate(259,864)" d="m0 0 5 1 8 5 4 5 3 5 2 5 4 4 1 7 2 2 2 5 2 7 2 3v8l-2 2v8l-9 17-3 5-5 5h-2l1 4-2 2h-5l-2 5-3 5-6 5h-6l-2-2 12-9 6-6h2l2-4 9-12 5-12 2-6 1-13-2-11-5-15-7-12-6-7-8-5z" fill="#1096B5"/>
<path transform="translate(1e3 897)" d="m0 0h2l-1 5-3 5-3 3-2 5-4 4-2 5-3 6-7 7-2 5-5 8-2 2-2 8-7 14-4 11-5 9-2 5h-2l1-10 5-13 5-12 9-17 7-10 9-17 8-11 3-4h2l2-4z" fill="#0F6986"/>
<path transform="translate(803,957)" d="m0 0h2v149l7 1-2 4-6-1-3-3v-148z" fill="#176B87"/>
<path transform="translate(1146,1107)" d="m0 0 4 1h-2l-1 5-4 5-11 6-12 7-8 6h-4v2l-11 7-1-3 8-11 4-2v-2l12-9 12-7z" fill="#95FDFD"/>
<path transform="translate(179,776)" d="m0 0 5 2 5 6 1 2v6h2l2 9 2 3v5l3 4v5l5 5 1 7 2 2v3h-3l-6-7-7-14-2-6-4-6-6-11-3-5-1-6z" fill="#B0B8BD"/>
<path transform="translate(984,1115)" d="m0 0 6 5v2l4 2 7 4 16 3 2 1 2-3v12l-2 2-4-6h-11l-16 4-2 1-2 3-1-1v-16z" fill="#ABB3B9"/>
<path transform="translate(716,554)" d="m0 0 5 5 2 5 1 31 2 8 1 3h-12l-1-5-1-44z" fill="#FCFCFC"/>
<path transform="translate(851,790)" d="m0 0h1l1 5v37l-1 47-1 1-1 132h-1v-203l1-17z" fill="#2F97B2"/>
<path transform="translate(930,581)" d="m0 0 4 1 9 4 1 2 3 2h-2l-1 5-10-1-9 5-12 6-13 4-13 6-3-1 1-3 22-8 3-2h3v-2l8-7 9-6z" fill="#6BF7FF"/>
<path transform="translate(570,754)" d="m0 0h2v15l-2 13-1 16-2 10v6h-2l-2-5-2-9v-18l2-10 3-9z" fill="#FDFDFD"/>
<path transform="translate(804,718)" d="m0 0h2v34l-1 56-4-2v-63l2-2z" fill="#2A738C"/>
<path transform="translate(1155,573)" d="m0 0h3l1 2v37h2v3h-2v58l-3 4h-2l1-18 1-16v-37l-1-18z" fill="#127B99"/>
<path transform="translate(634,834)" d="m0 0 18 5h59v2l-15 5h-15l-16-2h-7l-12-4-9-2-3-2z" fill="#FCFCFC"/>
<path transform="translate(1037,934)" d="m0 0v3l-9 12-10 16-7 16-8 16-3 4-2-5 1-4 10-21 10-16 10-13 6-7z" fill="#F6F7F7"/>
<path transform="translate(382,771)" d="m0 0h11l-4 2h-2l-1 11-3 14-4 9-3 1-3-2 3-14 1-13 3-7z" fill="#D5DADD"/>
<path transform="translate(804,979)" d="m0 0h1l1 126 12-1 15-1 4 1 1 6-6 1-13-1-7-2-7-1-1-1z" fill="#0B8AAA"/>
<path transform="translate(921,1088)" d="m0 0 3 1 2 4 6-1 4 1v3l-5 5h-27l1-4 7-5 1-2z" fill="#0B6785"/>
<path transform="translate(614,927)" d="m0 0h12l8 4 6 5 5 7-4-2-8-7-5-2-7-1-4-1-2 4-9 6-7 10-4 1-2-3 5-9 9-9z" fill="#FDFDFD"/>
<path transform="translate(948,621)" d="m0 0h7l2 1 1 8-4 8-3 4h-2v2l-5 1 1-12v-6h-9l2-3z" fill="#0CA5C4"/>
<path transform="translate(924,535)" d="m0 0h10l16 3 10 4v1h-8l-5-2h-36l-10 4-8 5-6 6-3-1 5-5 9-7 11-5z" fill="#156C89"/>
<path transform="translate(1091,750)" d="m0 0 1 3-10 15-14 19-11 14-8 10-15 16-15 15-8 7-7 6-1-2 5-4 15-15 8-7 12-13 9-10 13-17 13-18 8-13 3-1z" fill="#08A1C1"/>
<path transform="translate(1414,677)" d="m0 0 5 3v16l-5 13-1 2h-2l-2 5-5-2 1-5 5-10 2-9 1-1z" fill="#FCFCFC"/>
<path transform="translate(849,1015)" d="m0 0h3l1 18v28l-1 16-4 4z" fill="#1D7C98"/>
<path transform="translate(949,618)" d="m0 0h8l2 2v6l-2 1v-5h-9l-10 3-1 1 2 2-8 1-5 2-5-1-4 2h-17l-2-2 22-4 24-7z" fill="#07A7C7"/>
<path transform="translate(996,1113)" d="m0 0h23l2 5v5l-3 2-12-3-12-5-4-1v-2z" fill="#919CA3"/>
<path transform="translate(807,509)" d="m0 0h1l1 8 1 68v25l-3-1z" fill="#2D9BB5"/>
<path transform="translate(191,801)" d="m0 0 4 1 1 7 3 4v5l5 5 1 7 2 2v3h-3l-6-7-7-14-2-6-1-5z" fill="#9CA6AD"/>
<path transform="translate(249,988)" d="m0 0 10 3 3 3-9 1 1 3 1 8 6 10 4 5 4 6 5 5-1 4-13-16-10-15-3-9 1-6z" fill="#D5DADD"/>
<path transform="translate(713,1197)" d="m0 0h52v1l-45 1-5-1v2l-3 1h-45l-2-2 3-1z" fill="#B8C0C5"/>
<path transform="translate(889,724)" d="m0 0h2v59h-3v-57z" fill="#27758E"/>
<path transform="translate(974,747)" d="m0 0 1 4-4 5-3 5-6 5-7 9-4 6h-2l-2 4-1-4 7-13 3-3 6-3 3-3 2-5z" fill="#109CBC"/>
<path transform="translate(259,864)" d="m0 0 5 1 8 5 4 5 3 5 2 5 4 4 1 8 1 6 2 7v17l-2 1v-13l-2-11-5-15-7-12-6-7-8-5z" fill="#0C93B3"/>
<path transform="translate(1467,1059)" d="m0 0 1 3-10 25-12 25-15 30-2 1 2-6 11-23 5-10 11-23z" fill="#D5DADD"/>
<path transform="translate(1043,856)" d="m0 0 2 3-1 5-9 9-6 3-3 1-3-2 3-1 2-4 3-3h2v-2l8-7z" fill="#0E6886"/>
<path transform="translate(1296,981)" d="m0 0h2l-2 9-4 8-9 10-5 3-7 3h-5v-2l14-7 5-4 7-11z" fill="#F4F5F6"/>
<path transform="translate(285,897)" d="m0 0 3 1 2 5 2 7 2 3v8l-2 2v8l-4 5-2-1 1-7 1-1v-17l-2-7z" fill="#156F8C"/>
<path transform="translate(387,1122)" d="m0 0 11 1 6 3-1 2-10-2-10 4-5 3h-6l2-4 6-5z" fill="#FBFBFB"/>
<path transform="translate(1155,573)" d="m0 0h3l1 2v37l-3-2-1-22z" fill="#0F7391"/>
<path transform="translate(948,623)" d="m0 0h6l1 1-1 7-4 6-4 2-2-15z" fill="#0B84A5"/>
<path transform="translate(1202,658)" d="m0 0 4 2v9l-2 7-2 8-2 4h-2l1-13z" fill="#F6F7F8"/>
<path transform="translate(924,535)" d="m0 0h10l7 1v1l-23 1-7 1v2l-10 4-8 5-6 6-3-1 5-5 9-7 11-5z" fill="#0D95B5"/>
<path transform="translate(179,776)" d="m0 0 5 2 2 3-1 8-6 2-3-5-1-6z" fill="#D5DADD"/>
<path transform="translate(524,522)" d="m0 0 4 1 1 1 7 1 4 4 1 8-4-1-7-7-9-4z" fill="#CFD5D8"/>
<path transform="translate(990,1114)" d="m0 0h6l9 3 14 3 1 4-2 1-12-3-12-5-4-1z" fill="#8D959D"/>
<path transform="translate(863,580)" d="m0 0v3l-3 6-4 13-2 2-3 9-1-3 2-12 6-12z" fill="#0B94B4"/>
<path transform="translate(914,576)" d="m0 0h18l2 2 7 1 1 4-13-2-16-2z" fill="#14A7C6"/>
<path transform="translate(259,755)" d="m0 0 4 2 4 4v2l3 1 5 5 1 3 3 1v2l4 2 2 4 4 2 2 3-5-2-13-12-8-8-6-8z" fill="#D5DADD"/>
<path transform="translate(1021,877)" d="m0 0h2l1 4-8 8-2 6-5-1-1-2 9-11z" fill="#106986"/>
<path transform="translate(987,1486)" d="m0 0h5l-4 2-25 7-14 7-11 11v-3l5-7 16-9 16-5z" fill="#D5DADD"/>
<path transform="translate(996,726)" d="m0 0v3l-3 1-1 4-5 5-7 8-4 1v-3l8-8 2-5 5-2z" fill="#1BA3C1"/>
<path transform="translate(277,1040)" d="m0 0 3 1 8 11 10 11 7 8 5 6v5l-2-2-4-7-10-10-9-11-8-11z" fill="#D3D9DC"/>
<path transform="translate(238,978)" d="m0 0h12v1l-9 1-6 2h-21v-3h10z" fill="#24AECB"/>
<path transform="translate(805,917)" d="m0 0h1v38l-2 1-1-19v-4l1-15z" fill="#0F97B6"/>
<path transform="translate(808,559)" d="m0 0h1l1 26v25l-3-1z" fill="#0F8DAD"/>
<path transform="translate(826,1106)" d="m0 0h12v4l-6 1-13-1-3-3z" fill="#1C6E89"/>
<path transform="translate(229,852)" d="m0 0h12l15 8 3 4-5-2-16-6-9-3z" fill="#0C7F9E"/>
<path transform="translate(884,625)" d="m0 0 8 1 1 3h2v3h-2v2l-6 1-3-5-1-4z" fill="#59B9D1"/>
<path transform="translate(986,661)" d="m0 0h1l1 10-2 2-1 7-7 7-1-2 5-12 3-9z" fill="#0F6B88"/>
<path transform="translate(892,862)" d="m0 0 2 4 1 22h-3l-1-3v-22z" fill="#319BB4"/>
<path transform="translate(1022,1109)" d="m0 0 3 1-1 2-5 2-27-1 2-2 15-1z" fill="#ABB4B9"/>
<path transform="translate(609,121)" d="m0 0 3 1-4 2-17 4-23 7-4 1v-2l20-7 23-5z" fill="#D3DBDD"/>
<path transform="translate(286,928)" d="m0 0 1 4 1 7-4 7h-2l-4 6h-2l2-5 5-10z" fill="#0989A8"/>
<path transform="translate(157,906)" d="m0 0h3l-1 22-3-1v-20z" fill="#0A89A9"/>
<path transform="translate(1091,750)" d="m0 0 1 3-10 15-7 10-1-3 12-19 3-1z" fill="#08A1C1"/>
<path transform="translate(1182,1126)" d="m0 0 2 4-3 5-2 5-5 1-1-3 6-8z" fill="#17CCEA"/>
<path transform="translate(282,945)" d="m0 0 1 3-3 5-5 5h-2l1 4-3 2-2-2 3-7 3-3 3-1z" fill="#0E7998"/>
<path transform="translate(536,144)" d="m0 0 3 1-2 2-14 5-15 6-2-1 12-6z" fill="#D1DBDE"/>
<path transform="translate(982,668)" d="m0 0h1l-1 8-6 15-3 1-5 5 2-5 8-13z" fill="#0894B5"/>
<path transform="translate(732,1056)" d="m0 0 3 1-2 6-7 8-3-1 1-2h2l1-5z" fill="#176B87"/>
<path transform="translate(1066,902)" d="m0 0 2 1-6 8-4 4h-3l1-4 6-7z" fill="#F5F6F7"/>
<path transform="translate(948,621)" d="m0 0h7l2 1-1 7h-1l-1-5h-10l1 3h-9l2-3z" fill="#0E9BBB"/>
<path transform="translate(902,541)" d="m0 0h4v2l-12 6-7 7-3-1 5-5 9-7z" fill="#0C90B0"/>
<path transform="translate(894,911)" d="m0 0h1v16h-3l-1-3v-8z" fill="#1889A6"/>
<path transform="translate(264,966)" d="m0 0 1 3-3 5-4 4h-7l4-4 8-7z" fill="#186D88"/>
<path transform="translate(259,864)" d="m0 0 5 1 8 5 4 5-1 3-5-4-5-5-6-4z" fill="#118CAB"/>
<path transform="translate(377,1080)" d="m0 0 17 1v2l-13 1-4 1-3-2z" fill="#DADEE1"/>
<path transform="translate(1e3 854)" d="m0 0v3h-2l-2 4-10 13-3 3-2-1 12-14 3-5z" fill="#0D9CBC"/>
<path transform="translate(185,864)" d="m0 0 2 1-7 7-7 8-2 1 1-5h2l2-4z" fill="#0B8AAA"/>
<path transform="translate(974,747)" d="m0 0 1 4-4 5-3 5-2-2 1-5z" fill="#40A6BE"/>
<path transform="translate(1408,1180)" d="m0 0 2 1-6 10-6 9-3-1z" fill="#929DA4"/>
<path transform="translate(959,764)" d="m0 0 2 1-11 13-1-3 5-8z" fill="#146B88"/>
<path transform="translate(324,803)" d="m0 0 6 1v7h-2l-1 4-3-5z" fill="#7AA1AF"/>
<path transform="translate(191,801)" d="m0 0 4 1 1 6h-7l-1-5z" fill="#98A3AA"/>
<path transform="translate(942,1032)" d="m0 0 4 2v6l-4 6-2-3z" fill="#127390"/>
<path transform="translate(1087,336)" d="m0 0 4 2 17 17v2l-4-2-11-12z" fill="#D5DADD"/>
<path transform="translate(871,569)" d="m0 0 3 1-1 6-3 3h-5v-2l2-1 1-3h2z" fill="#0B6E8D"/>
<path transform="translate(1157,611)" d="m0 0 4 1v3l-2 1-1 27h-1l-1-24z" fill="#0F6885"/>
<path transform="translate(911,828)" d="m0 0 2 1-5 9-5 1 2-5z" fill="#53B4CB"/>
<path transform="translate(852,231)" d="m0 0h10l6 2v1h-15z" fill="#B9C1C5"/>
<path transform="translate(242,93)" d="m0 0h7l-2 4-3 2-4-1v-4z" fill="#479DB3"/>
<path transform="translate(1199,1222)" d="m0 0 1 2-4 5-11 6-4-1 13-7z" fill="#64BFD6"/>
<path transform="translate(848,1086)" d="m0 0h1v13l-5 1 1-5 2-7z" fill="#0984A5"/>
<path transform="translate(1016,699)" d="m0 0 1 4-4 6-5 4 2-5 3-6z" fill="#63BED6"/>
<path transform="translate(661,655)" d="m0 0 18 2v2h-13l-5-1z" fill="#FBFCFC"/>
<path transform="translate(1198,1394)" d="m0 0 3 1-10 8-5 3h-2l1-3 11-7h2z" fill="#8B9CA5"/>
<path transform="translate(1236,1365)" d="m0 0h5l-5 5-7 5-2-1 3-4 5-3z" fill="#7F99A4"/>
<path transform="translate(1278,1006)" d="m0 0 2 1-4 5-5 2h-5v-2z" fill="#F3F4F5"/>
<path transform="translate(881,557)" d="m0 0h2l-1 4-3 6-6 1 3-5z" fill="#0F7391"/>
<path transform="translate(944,537)" d="m0 0 9 2 7 3v1h-8l-8-5z" fill="#0991B1"/>
<path transform="translate(1417,1163)" d="m0 0 1 2-9 15-4 4 2-5 5-9z" fill="#D5DADD"/>
<path transform="translate(850,621)" d="m0 0h2l1 2v10l-1 7h-1z" fill="#1597B5"/>
<path transform="translate(928,1520)" d="m0 0 3 1-2 4-7 11-1-2z" fill="#E2E6E7"/>
<path transform="translate(849,1066)" d="m0 0 2 4v8l-3 3v-14z" fill="#0984A5"/>
<path transform="translate(858,589)" d="m0 0h1l-1 8-3 6h-2l2-9z" fill="#106E8C"/>
<path transform="translate(174,956)" d="m0 0 7 6 2 2v3l-4-2-5-6z" fill="#0E9BBB"/>
<path transform="translate(637,579)" d="m0 0 3 1-5 5-2 6h-3v-3h2l1-5z" fill="#598798"/>
<path transform="translate(527,238)" d="m0 0 2 1-15 15v-3l7-8z" fill="#DEE2E4"/>
<path transform="translate(1182,1405)" d="m0 0h2l-1 3-7 4-3 3h-2l1-4z" fill="#96A1A8"/>
<path transform="translate(1150,806)" d="m0 0 1 2-9 11v-3l3-6z" fill="#C4CBCF"/>
<path transform="translate(722,236)" d="m0 0 5 3 8 9-1 3-9-10-3-3z" fill="#7194A1"/>
<path transform="translate(806,462)" d="m0 0h2v9l-4-1v-6z" fill="#1D7C98"/>
<path transform="translate(964,312)" d="m0 0 6 1 11 6v3l-17-9z" fill="#3BC6E1"/>
<path transform="translate(1111,1126)" d="m0 0 2 2-5 6-4 1v-3l4-2v-2z" fill="#D5DADD"/>
<path transform="translate(996,726)" d="m0 0v3l-3 1-1 4-5 3 1-3-2-2 5-2z" fill="#66BBD0"/>
<path transform="translate(933,581)" d="m0 0 6 1 8 3v3l-3 1-1-3-9-3z" fill="#28CBE7"/>
<path transform="translate(274,877)" d="m0 0 5 3 2 5 2 3-2 3-6-11z" fill="#0B9FBF"/>
<path transform="translate(294,788)" d="m0 0 5 1 9 4v2l-6-1-8-5z" fill="#D5DADD"/>
<path transform="translate(994,1008)" d="m0 0h2l-2 10-2 4-1-4z" fill="#F6F6F7"/>
<path transform="translate(920,813)" d="m0 0 3 1-2 4h-2v4h-2l-1 3-1-3z" fill="#66B5C9"/>
<path transform="translate(953,774)" d="m0 0 1 2-3 5h-2l-2 4-1-4 3-4z" fill="#0E95B4"/>
<path transform="translate(1466,1152)" d="m0 0h3l-2 7-3 2-1-3 1-4h2z" fill="#96A2A8"/>
<path transform="translate(566,815)" d="m0 0h2l4 11 2 4-4-2-4-9z" fill="#FBFBFB"/>
<path transform="translate(933,578)" d="m0 0 8 1 1 4-9-2-2-2z" fill="#2C94AE"/>
<path transform="translate(216,942)" d="m0 0h9l1 3h-7l-3-1z" fill="#0987A7"/>
<path transform="translate(1082,765)" d="m0 0v3l-7 10-1-3 5-8z" fill="#0A9FBF"/>
<path transform="translate(985,733)" d="m0 0 4 1-3 6-5 1 3-4z" fill="#1798B6"/>
<path transform="translate(1586,228)" d="m0 0 1 3h-2z" fill="#919DA4"/>
<path transform="translate(1148,881)" d="m0 0 2 1-2 1z" fill="#D5DADD"/>
<path transform="translate(1147,883)" d="m0 0" fill="#D5DADD"/>
</svg>
